Coordinates
version=1
nRows=16
nColumns=63
inDegrees=yes

Units are S.I. units (second, meters, Newtons, ...)
If the header above contains a line with 'inDegrees', this indicates whether rotational values are in degrees (yes) or radians (no).

endheader
time	pelvis_tilt	pelvis_list	pelvis_rotation	pelvis_tx	pelvis_ty	pelvis_tz	hip_flexion_r	hip_adduction_r	hip_rotation_r	knee_angle_r	knee_angle_r_beta	ankle_angle_r	subtalar_angle_r	mtp_angle_r	hip_flexion_l	hip_adduction_l	hip_rotation_l	knee_angle_l	knee_angle_l_beta	ankle_angle_l	subtalar_angle_l	mtp_angle_l	L5_S1_Flex_Ext	L5_S1_Lat_Bending	L5_S1_axial_rotation	L4_L5_Flex_Ext	L4_L5_Lat_Bending	L4_L5_axial_rotation	L3_L4_Flex_Ext	L3_L4_Lat_Bending	L3_L4_axial_rotation	L2_L3_Flex_Ext	L2_L3_Lat_Bending	L2_L3_axial_rotation	L1_L2_Flex_Ext	L1_L2_Lat_Bending	L1_L2_axial_rotation	L1_T12_Flex_Ext	L1_T12_Lat_Bending	L1_T12_axial_rotation	Abs_r3	Abs_r2	Abs_r1	Abs_t1	Abs_t2	neck_flexion	neck_bending	neck_rotation	arm_flex_r	arm_add_r	arm_rot_r	elbow_flex_r	pro_sup_r	wrist_flex_r	wrist_dev_r	arm_flex_l	arm_add_l	arm_rot_l	elbow_flex_l	pro_sup_l	wrist_flex_l	wrist_dev_l
3.423729	-1.739160	-2.947971	86.847558	0.344293	0.906998	0.622770	11.081414	0.092681	-1.671992	19.783269	0.345283	41.010036	-2.942494	0.000000	8.742712	-2.886611	-10.428449	13.782132	0.240544	41.730340	17.782448	0.000000	-0.038212	0.142140	-0.053605	-0.070963	0.189046	-0.056955	-0.062778	0.345599	-0.056955	-0.043672	0.345599	-0.046904	-0.035484	0.289852	-0.043554	-0.021834	0.220175	-0.040203	-0.272944	1.607915	-0.298133	0.000000	0.000000	23.002682	0.955577	-3.566793	10.065321	-9.742525	55.165058	40.374943	61.311279	7.679907	8.752706	14.949131	-13.354480	72.310649	46.409038	43.006233	-5.813505	-20.826874
3.440678	-1.465974	-2.768975	87.044846	0.344063	0.907103	0.622510	11.443170	0.559215	-0.691192	20.670615	0.360770	41.030446	-4.973823	0.000000	8.730723	-3.220266	-10.391128	14.204622	0.247917	41.986413	17.943589	0.000000	-0.045037	0.181779	-0.114927	-0.083638	0.241766	-0.122110	-0.073991	0.441977	-0.122110	-0.051472	0.441977	-0.100562	-0.041821	0.370684	-0.093379	-0.025734	0.281576	-0.086196	-0.321692	2.056320	-0.639192	0.000000	0.000000	22.108976	0.287217	-2.705666	10.064960	-9.865626	55.157170	40.513379	61.627169	7.572169	8.607749	14.919893	-13.190032	72.138344	46.198135	42.672104	-5.572828	-20.907119
3.457627	-1.230522	-2.564985	87.188659	0.343967	0.907285	0.622144	11.690297	0.980091	0.233456	21.429186	0.374010	41.032655	-6.817434	0.000000	8.675966	-3.527231	-10.395681	14.624551	0.255247	42.223050	18.097665	0.000000	-0.052500	0.216985	-0.144326	-0.097499	0.288590	-0.153346	-0.086253	0.527577	-0.153346	-0.060003	0.527577	-0.126285	-0.048752	0.442476	-0.117265	-0.029999	0.336110	-0.108244	-0.375006	2.454577	-0.802697	0.000000	0.000000	21.147129	-0.322356	-1.920417	10.019509	-9.980140	55.066361	40.633932	61.907663	7.453056	8.474362	14.745466	-12.928593	71.545216	45.910699	42.612082	-5.193707	-20.791392
3.474576	-1.052645	-2.329606	87.236952	0.344062	0.907555	0.621593	11.789164	1.330478	1.075549	22.004519	0.384051	41.019834	-8.364830	0.000000	8.546302	-3.785064	-10.476036	15.003785	0.261865	42.430106	18.241533	0.000000	-0.059429	0.245146	-0.134189	-0.110366	0.326044	-0.142576	-0.097637	0.596048	-0.142576	-0.067922	0.596048	-0.117415	-0.055186	0.499902	-0.109029	-0.033958	0.379731	-0.100642	-0.424498	2.773141	-0.746319	0.000000	0.000000	20.137621	-0.771291	-1.128508	9.909910	-10.073799	54.872078	40.727035	62.301595	7.334562	8.338343	14.374191	-12.566380	70.428791	45.551921	43.055399	-4.697417	-20.471143
3.491525	-0.929638	-2.083439	87.259585	0.344250	0.907879	0.620964	11.771495	1.605485	1.822652	22.425788	0.391404	40.998300	-9.696438	0.000000	8.383177	-3.986219	-10.547059	15.350935	0.267924	42.605181	18.365462	0.000000	-0.065889	0.266246	-0.097596	-0.122362	0.354107	-0.103696	-0.108249	0.647350	-0.103696	-0.075304	0.647350	-0.085397	-0.061184	0.542928	-0.079297	-0.037649	0.412415	-0.073197	-0.470636	3.011826	-0.542802	0.000000	0.000000	19.162013	-1.175965	-0.447579	9.773159	-10.156402	54.664402	40.798562	62.483088	7.190701	8.266413	13.842160	-12.128419	68.866755	45.168258	43.849808	-4.137601	-19.945155
3.508475	-0.844186	-1.835362	87.246163	0.344538	0.908250	0.620229	11.630635	1.815545	2.392339	22.659756	0.395487	40.944210	-10.710687	0.000000	8.190917	-4.151796	-10.624565	15.663709	0.273383	42.761839	18.478194	0.000000	-0.069474	0.282114	-0.033116	-0.129019	0.375212	-0.035186	-0.114138	0.685933	-0.035186	-0.079401	0.685933	-0.028977	-0.064513	0.575287	-0.026907	-0.039697	0.436995	-0.024837	-0.496243	3.191333	-0.184183	0.000000	0.000000	18.262932	-1.483833	0.139006	9.573632	-10.228340	54.356668	40.863428	62.636072	7.037399	8.263225	13.163315	-11.626840	66.942267	44.763629	44.891292	-3.482323	-19.224603
3.525424	-0.822952	-1.594509	87.193192	0.344930	0.908647	0.619403	11.389595	1.937575	2.860763	22.729591	0.396706	40.851275	-11.489084	0.000000	7.975385	-4.246341	-10.713721	15.928065	0.277997	42.883015	18.569997	0.000000	-0.068331	0.289400	0.055489	-0.126898	0.384902	0.058957	-0.112261	0.703646	0.058957	-0.078096	0.703646	0.048553	-0.063452	0.590144	0.045085	-0.039044	0.448280	0.041617	-0.488082	3.273747	0.308614	0.000000	0.000000	17.461586	-1.665002	0.648321	9.339533	-10.273112	54.017652	40.894383	62.775129	6.930065	8.313807	12.373723	-11.087088	64.753046	44.328709	46.328914	-2.812744	-18.447884
3.542373	-0.857523	-1.327785	87.131970	0.345386	0.909106	0.618462	11.011247	1.951083	3.034072	22.640477	0.395151	40.765794	-11.805780	0.000000	7.682815	-4.270723	-10.768343	16.092706	0.280871	42.955377	18.639509	0.000000	-0.067205	0.288530	0.155988	-0.124806	0.383745	0.165737	-0.110411	0.701533	0.165737	-0.076808	0.701533	0.136489	-0.062406	0.588371	0.126740	-0.038401	0.446933	0.116991	-0.480038	3.263913	0.867558	0.000000	0.000000	16.767298	-1.687627	1.067622	9.075420	-10.276334	53.641454	40.885386	62.922904	6.859938	8.420686	11.490848	-10.564041	62.390829	43.937844	47.878741	-2.107274	-17.551621
3.559322	-0.939289	-1.055699	87.053742	0.345930	0.909586	0.617476	10.529434	1.914550	3.289586	22.397284	0.390906	40.597480	-12.162355	0.000000	7.352147	-4.235111	-10.820857	16.190096	0.282570	42.996005	18.694267	0.000000	-0.063949	0.280974	0.264789	-0.118760	0.373695	0.281339	-0.105062	0.683159	0.281339	-0.073087	0.683159	0.231691	-0.059383	0.572961	0.215141	-0.036540	0.435228	0.198592	-0.456781	3.178429	1.472679	0.000000	0.000000	16.211973	-1.551375	1.454882	8.838220	-10.256486	53.387748	40.834073	62.969686	6.836708	8.549579	10.605366	-10.074377	60.057599	43.589391	49.739350	-1.527418	-16.695934
3.576271	-1.091915	-0.772087	86.909894	0.346576	0.910073	0.616467	9.975761	1.778670	3.471009	22.066502	0.385133	40.438203	-12.271978	0.000000	6.949517	-4.110122	-10.903755	16.161284	0.282068	42.990931	18.729940	0.000000	-0.060042	0.264164	0.385693	-0.111504	0.351338	0.409799	-0.098643	0.642288	0.409799	-0.068622	0.642288	0.337481	-0.055755	0.538683	0.313375	-0.034308	0.409190	0.289270	-0.428876	2.988275	2.145108	0.000000	0.000000	15.794621	-1.309537	1.732514	8.632710	-10.203215	53.241349	40.745925	62.971804	6.861445	8.702336	9.724349	-9.646565	57.741223	43.303419	51.936810	-0.995692	-15.852831
3.593220	-1.293957	-0.482910	86.712890	0.347346	0.910541	0.615463	9.369553	1.598882	3.761287	21.655460	0.377959	40.265958	-12.403275	0.000000	6.489556	-3.921564	-11.007432	16.019916	0.279600	42.954354	18.747272	0.000000	-0.055129	0.240408	0.510221	-0.102380	0.319742	0.542109	-0.090571	0.584528	0.542109	-0.063007	0.584528	0.446443	-0.051193	0.490240	0.414554	-0.031501	0.372392	0.382665	-0.393781	2.719542	2.837693	0.000000	0.000000	15.502748	-0.957131	1.961241	8.493063	-10.118910	53.290943	40.616648	62.886133	6.928897	8.840166	8.911004	-9.314809	55.648140	43.104608	54.210433	-0.609476	-15.126231
3.610169	-1.538376	-0.177782	86.446167	0.348208	0.910989	0.614488	8.728458	1.351968	3.978556	21.207734	0.370145	40.167303	-12.264199	0.000000	5.952217	-3.670471	-11.138172	15.746706	0.274832	42.884901	18.739813	0.000000	-0.052206	0.210252	0.639619	-0.096952	0.279635	0.679595	-0.085769	0.511207	0.679595	-0.059666	0.511207	0.559666	-0.048479	0.428746	0.519690	-0.029831	0.325681	0.479714	-0.372903	2.378415	3.557367	0.000000	0.000000	15.327081	-0.546358	2.044237	8.407036	-10.011389	53.472449	40.467780	62.730652	7.037429	8.969420	8.193474	-9.091449	53.841192	42.992730	56.511182	-0.353656	-14.524309
3.627119	-1.812829	0.149561	86.105865	0.349129	0.911418	0.613569	8.066205	1.050103	4.147301	20.745538	0.362078	40.152589	-11.881716	0.000000	5.326537	-3.362047	-11.282925	15.329231	0.267546	42.777698	18.696718	0.000000	-0.053777	0.175759	0.768722	-0.099870	0.233759	0.816767	-0.088351	0.427340	0.816767	-0.061462	0.427340	0.672632	-0.049938	0.358407	0.624587	-0.030728	0.272250	0.576542	-0.384126	1.988218	4.275403	0.000000	0.000000	15.240170	-0.127365	2.012567	8.412952	-9.902774	53.873226	40.316303	62.419355	7.180253	9.071511	7.569207	-8.965373	52.297080	42.959613	58.905220	-0.240210	-14.113571
3.644068	-2.091626	0.401372	85.768025	0.350005	0.911708	0.612792	7.500599	0.733515	4.277440	20.284639	0.354034	40.195529	-11.373465	0.000000	4.779231	-3.041728	-11.425474	14.880695	0.259717	42.666002	18.656913	0.000000	-0.047789	0.141892	0.879892	-0.088749	0.188717	0.934885	-0.078513	0.344997	0.934885	-0.054618	0.344997	0.769906	-0.044377	0.289347	0.714912	-0.027307	0.219791	0.659919	-0.341353	1.605114	4.893696	0.000000	0.000000	15.297450	0.255246	2.000416	8.484485	-9.806269	54.442902	40.189793	62.018170	7.281707	9.131030	7.012623	-8.933164	50.998877	43.028207	61.166944	-0.252289	-13.789814
3.661017	-2.362090	0.640751	85.410083	0.350866	0.911933	0.612138	6.972130	0.404378	4.323526	19.835037	0.346187	40.321043	-10.663039	0.000000	4.211738	-2.712891	-11.563736	14.342158	0.250318	42.522605	18.616140	0.000000	-0.045227	0.108212	0.978325	-0.083991	0.143922	1.039471	-0.074303	0.263107	1.039471	-0.051690	0.263107	0.856035	-0.041998	0.220666	0.794889	-0.025843	0.167621	0.733744	-0.323050	1.224118	5.441153	0.000000	0.000000	15.465061	0.620188	1.895283	8.638030	-9.721592	55.171896	40.076279	61.506557	7.394987	9.158324	6.575674	-8.996239	50.028954	43.183757	63.252420	-0.423029	-13.653284
3.677966	-2.574936	0.843699	85.049979	0.351661	0.912070	0.611586	6.499540	0.144125	4.445871	19.382879	0.338295	40.441195	-10.006079	0.000000	3.662575	-2.429132	-11.680990	13.746529	0.239922	42.372169	18.556432	0.000000	-0.042778	0.082269	1.057675	-0.079443	0.109418	1.123779	-0.070280	0.200030	1.123779	-0.048891	0.200030	0.925465	-0.039724	0.167764	0.859361	-0.024443	0.127435	0.793256	-0.305560	0.930649	5.882469	0.000000	0.000000	15.733973	0.915275	1.784846	8.804033	-9.665551	55.885214	40.012765	61.104734	7.512916	9.163067	6.185262	-9.094560	49.202243	43.368778	65.049179	-0.521410	-13.613661
